<svg width="40" height="40" viewBox="0 0 40 40" fill="none" xmlns="http://www.w3.org/2000/svg">
  <defs>
    <linearGradient id="logo-grad" x1="0%" y1="0%" x2="100%" y2="100%">
      <stop offset="0%" stop-color="#00f2ff" />
      <stop offset="100%" stop-color="#008d7a" />
    </linearGradient>
    <clipPath id="clip">
      <path d="M20 4L34 12V28L20 36L6 28V12L20 4Z" />
    </clipPath>
  </defs>
  <!-- Futuristic Hex-Aperture -->
  <path d="M20 4L34 12V28L20 36L6 28V12L20 4Z" stroke="url(#logo-grad)" stroke-width="2" />
  <g clip-path="url(#clip)">
    <path d="M20 20L34 12V4L20 4L20 20Z" fill="url(#logo-grad)" opacity="0.3" />
    <path d="M20 20L6 12V4L20 4L20 20Z" fill="url(#logo-grad)" opacity="0.1" />
  </g>
  <circle cx="20" cy="20" r="4" fill="url(#logo-grad)" />
  <!-- Minimalist circuit accents -->
  <path d="M20 12V6M30 18L34 16M30 22L34 24" stroke="url(#logo-grad)" stroke-width="1.5" stroke-linecap="round" />
</svg>